<svg width="110" height="36" viewBox="0 0 110 36" fill="none" xmlns="http://www.w3.org/2000/svg">
<path d="M29.744 22.26C30.584 22.26 31.252 22.112 31.748 21.816C32.244 21.512 32.492 21.096 32.492 20.568C32.492 20.224 32.42 19.932 32.276 19.692C32.132 19.452 31.844 19.228 31.412 19.02C30.98 18.812 30.324 18.596 29.444 18.372C28.612 18.156 27.88 17.9 27.248 17.604C26.624 17.308 26.14 16.924 25.796 16.452C25.452 15.98 25.28 15.372 25.28 14.628C25.28 13.54 25.732 12.664 26.636 12C27.548 11.328 28.784 10.992 30.344 10.992C31.408 10.992 32.336 11.132 33.128 11.412C33.92 11.692 34.596 12.04 35.156 12.456L34.028 14.148C33.532 13.82 32.988 13.552 32.396 13.344C31.812 13.136 31.152 13.032 30.416 13.032C29.56 13.032 28.944 13.16 28.568 13.416C28.2 13.672 28.016 14.012 28.016 14.436C28.016 14.756 28.108 15.02 28.292 15.228C28.484 15.436 28.812 15.632 29.276 15.816C29.74 16 30.396 16.208 31.244 16.44C32.068 16.664 32.784 16.928 33.392 17.232C34.008 17.536 34.484 17.94 34.82 18.444C35.164 18.94 35.336 19.588 35.336 20.388C35.336 21.3 35.072 22.048 34.544 22.632C34.016 23.208 33.328 23.636 32.48 23.916C31.632 24.188 30.72 24.324 29.744 24.324C28.568 24.324 27.552 24.156 26.696 23.82C25.84 23.476 25.12 23.048 24.536 22.536L25.964 20.904C26.46 21.304 27.028 21.632 27.668 21.888C28.308 22.136 29 22.26 29.744 22.26ZM41.7586 18.528C41.8386 19.832 42.2026 20.776 42.8506 21.36C43.5066 21.944 44.2946 22.236 45.2146 22.236C45.8306 22.236 46.4026 22.14 46.9306 21.948C47.4666 21.756 48.0026 21.484 48.5386 21.132L49.7026 22.74C49.1106 23.22 48.4186 23.604 47.6266 23.892C46.8346 24.18 45.9866 24.324 45.0826 24.324C43.7626 24.324 42.6466 24.044 41.7346 23.484C40.8306 22.924 40.1426 22.144 39.6706 21.144C39.2066 20.144 38.9746 18.988 38.9746 17.676C38.9746 16.404 39.2066 15.268 39.6706 14.268C40.1346 13.26 40.7986 12.464 41.6626 11.88C42.5266 11.288 43.5586 10.992 44.7586 10.992C46.4386 10.992 47.7666 11.556 48.7426 12.684C49.7266 13.812 50.2186 15.36 50.2186 17.328C50.2186 17.544 50.2106 17.76 50.1946 17.976C50.1866 18.184 50.1746 18.368 50.1586 18.528H41.7586ZM44.7826 12.984C43.9426 12.984 43.2466 13.284 42.6946 13.884C42.1426 14.484 41.8266 15.42 41.7466 16.692H47.6146C47.5906 15.5 47.3346 14.584 46.8466 13.944C46.3666 13.304 45.6786 12.984 44.7826 12.984ZM63.6013 20.892C63.6013 21.396 63.6773 21.76 63.8293 21.984C63.9813 22.208 64.2253 22.376 64.5613 22.488L63.9613 24.312C63.3373 24.24 62.7973 24.068 62.3413 23.796C61.8933 23.524 61.5573 23.112 61.3333 22.56C60.8693 23.152 60.2813 23.596 59.5693 23.892C58.8573 24.18 58.0973 24.324 57.2893 24.324C56.0013 24.324 54.9853 23.964 54.2413 23.244C53.4973 22.516 53.1253 21.564 53.1253 20.388C53.1253 19.052 53.6453 18.024 54.6853 17.304C55.7253 16.584 57.2133 16.224 59.1493 16.224H60.9613V15.396C60.9613 14.572 60.7133 13.984 60.2173 13.632C59.7213 13.272 59.0293 13.092 58.1413 13.092C57.7253 13.092 57.2213 13.148 56.6293 13.26C56.0373 13.364 55.4173 13.528 54.7693 13.752L54.1093 11.856C54.9013 11.56 55.6773 11.344 56.4373 11.208C57.1973 11.064 57.9013 10.992 58.5493 10.992C60.2453 10.992 61.5093 11.368 62.3413 12.12C63.1813 12.872 63.6013 13.912 63.6013 15.24V20.892ZM58.1053 22.344C58.6493 22.344 59.1813 22.2 59.7013 21.912C60.2213 21.624 60.6413 21.22 60.9613 20.7V17.904H59.4733C58.2093 17.904 57.3053 18.116 56.7613 18.54C56.2173 18.956 55.9453 19.532 55.9453 20.268C55.9453 21.652 56.6653 22.344 58.1053 22.344ZM68.4279 24V22.08H70.2879V13.236H68.4279V11.328H72.3399L72.8319 14.268C73.3039 13.204 73.8879 12.396 74.5839 11.844C75.2879 11.284 76.1919 11.004 77.2959 11.004C77.6719 11.004 78.0079 11.036 78.3039 11.1C78.6079 11.156 78.9079 11.232 79.2039 11.328L78.7479 15.996H76.8279V13.416C75.9319 13.448 75.1599 13.808 74.5119 14.496C73.8639 15.176 73.3519 16.136 72.9759 17.376V22.08H75.5319V24H68.4279ZM88.8065 22.116C89.3985 22.116 89.9505 22.012 90.4625 21.804C90.9745 21.596 91.4625 21.332 91.9265 21.012L93.1745 22.74C92.6225 23.212 91.9505 23.596 91.1585 23.892C90.3745 24.18 89.5625 24.324 88.7225 24.324C87.4265 24.324 86.3145 24.052 85.3865 23.508C84.4665 22.956 83.7625 22.188 83.2745 21.204C82.7945 20.212 82.5545 19.052 82.5545 17.724C82.5545 16.436 82.7985 15.288 83.2865 14.28C83.7825 13.264 84.4945 12.464 85.4225 11.88C86.3505 11.288 87.4665 10.992 88.7705 10.992C90.4665 10.992 91.9305 11.5 93.1625 12.516L91.9265 14.208C91.4305 13.864 90.9225 13.604 90.4025 13.428C89.8825 13.244 89.3545 13.152 88.8185 13.152C87.8105 13.152 86.9905 13.52 86.3585 14.256C85.7265 14.992 85.4105 16.148 85.4105 17.724C85.4105 19.308 85.7305 20.436 86.3705 21.108C87.0105 21.78 87.8225 22.116 88.8065 22.116ZM99.7771 5.976V12.876C100.289 12.252 100.885 11.784 101.565 11.472C102.253 11.152 102.965 10.992 103.701 10.992C104.893 10.992 105.781 11.324 106.365 11.988C106.949 12.652 107.241 13.576 107.241 14.76V24H104.553V15.18C104.553 14.42 104.409 13.876 104.121 13.548C103.833 13.212 103.369 13.044 102.729 13.044C102.129 13.044 101.573 13.24 101.061 13.632C100.549 14.016 100.121 14.452 99.7771 14.94V24H97.0891V6.264L99.7771 5.976Z" fill="#157937"/>
<rect x="7.60266" y="20" width="2" height="10.7517" transform="rotate(45 7.60266 20)" fill="#157937"/>
<path fill-rule="evenodd" clip-rule="evenodd" d="M14 24C18.9706 24 23 19.9706 23 15C23 13.1499 22.4417 11.4301 21.4845 10H18.899C20.1955 11.2705 21 13.0413 21 15C21 18.866 17.866 22 14 22C10.134 22 7 18.866 7 15C7 11.134 10.134 8 14 8H19.6573H24H94V6H14C9.02944 6 5 10.0294 5 15C5 19.9706 9.02944 24 14 24Z" fill="#157937"/>
<path d="M78.638 30.948C78.668 31.437 78.8045 31.791 79.0475 32.01C79.2935 32.229 79.589 32.3385 79.934 32.3385C80.165 32.3385 80.3795 32.3025 80.5775 32.2305C80.7785 32.1585 80.9795 32.0565 81.1805 31.9245L81.617 32.5275C81.395 32.7075 81.1355 32.8515 80.8385 32.9595C80.5415 33.0675 80.2235 33.1215 79.8845 33.1215C79.3895 33.1215 78.971 33.0165 78.629 32.8065C78.29 32.5965 78.032 32.304 77.855 31.929C77.681 31.554 77.594 31.1205 77.594 30.6285C77.594 30.1515 77.681 29.7255 77.855 29.3505C78.029 28.9725 78.278 28.674 78.602 28.455C78.926 28.233 79.313 28.122 79.763 28.122C80.393 28.122 80.891 28.3335 81.257 28.7565C81.626 29.1795 81.8105 29.76 81.8105 30.498C81.8105 30.579 81.8075 30.66 81.8015 30.741C81.7985 30.819 81.794 30.888 81.788 30.948H78.638ZM79.772 28.869C79.457 28.869 79.196 28.9815 78.989 29.2065C78.782 29.4315 78.6635 29.7825 78.6335 30.2595H80.834C80.825 29.8125 80.729 29.469 80.546 29.229C80.366 28.989 80.108 28.869 79.772 28.869ZM83.1975 33V28.248H84.066L84.1425 28.8645C84.3405 28.6245 84.5745 28.4415 84.8445 28.3155C85.1145 28.1865 85.392 28.122 85.677 28.122C86.121 28.122 86.4525 28.2465 86.6715 28.4955C86.8935 28.7445 87.0045 29.091 87.0045 29.535V33H85.9965V30.0345C85.9965 29.6235 85.9545 29.331 85.8705 29.157C85.7895 28.98 85.605 28.8915 85.317 28.8915C85.086 28.8915 84.8745 28.9635 84.6825 29.1075C84.4935 29.2485 84.3345 29.409 84.2055 29.589V33H83.1975ZM92.5945 27.645L92.8645 28.482C92.6755 28.545 92.467 28.587 92.239 28.608C92.014 28.629 91.762 28.6395 91.483 28.6395C91.768 28.7655 91.9825 28.9275 92.1265 29.1255C92.2705 29.3205 92.3425 29.5605 92.3425 29.8455C92.3425 30.1545 92.2675 30.4305 92.1175 30.6735C91.9675 30.9165 91.7515 31.107 91.4695 31.245C91.1905 31.383 90.8575 31.452 90.4705 31.452C90.3325 31.452 90.2125 31.446 90.1105 31.434C90.0115 31.422 89.914 31.4025 89.818 31.3755C89.677 31.4685 89.6065 31.599 89.6065 31.767C89.6065 31.863 89.6455 31.947 89.7235 32.019C89.8045 32.088 89.9635 32.1225 90.2005 32.1225H91.0285C91.3675 32.1225 91.666 32.181 91.924 32.298C92.185 32.412 92.389 32.5695 92.536 32.7705C92.686 32.9685 92.761 33.1935 92.761 33.4455C92.761 33.9195 92.557 34.287 92.149 34.548C91.741 34.809 91.153 34.9395 90.385 34.9395C89.839 34.9395 89.4115 34.884 89.1025 34.773C88.7965 34.662 88.5805 34.497 88.4545 34.278C88.3285 34.059 88.2655 33.7905 88.2655 33.4725H89.17C89.17 33.6405 89.2015 33.7785 89.2645 33.8865C89.3305 33.9945 89.452 34.074 89.629 34.125C89.806 34.179 90.061 34.206 90.394 34.206C90.889 34.206 91.2385 34.1445 91.4425 34.0215C91.6465 33.9015 91.7485 33.732 91.7485 33.513C91.7485 33.318 91.6645 33.168 91.4965 33.063C91.3285 32.961 91.1035 32.91 90.8215 32.91H90.007C89.557 32.91 89.227 32.8185 89.017 32.6355C88.81 32.4525 88.7065 32.2395 88.7065 31.9965C88.7065 31.6545 88.8835 31.368 89.2375 31.137C88.9525 30.987 88.744 30.8055 88.612 30.5925C88.483 30.3765 88.4185 30.1155 88.4185 29.8095C88.4185 29.4735 88.5025 29.1795 88.6705 28.9275C88.8385 28.6755 89.071 28.479 89.368 28.338C89.668 28.197 90.013 28.1265 90.403 28.1265C90.784 28.1295 91.102 28.11 91.357 28.068C91.612 28.026 91.834 27.969 92.023 27.897C92.215 27.822 92.4055 27.738 92.5945 27.645ZM90.412 28.8195C90.091 28.8195 89.8495 28.911 89.6875 29.094C89.5255 29.274 89.4445 29.5095 89.4445 29.8005C89.4445 30.1005 89.527 30.342 89.692 30.525C89.857 30.705 90.1015 30.795 90.4255 30.795C90.7225 30.795 90.949 30.708 91.105 30.534C91.264 30.36 91.3435 30.1125 91.3435 29.7915C91.3435 29.1435 91.033 28.8195 90.412 28.8195ZM95.885 25.9215C96.083 25.9215 96.242 25.9815 96.362 26.1015C96.485 26.2215 96.5465 26.3715 96.5465 26.5515C96.5465 26.7315 96.485 26.883 96.362 27.006C96.242 27.129 96.083 27.1905 95.885 27.1905C95.693 27.1905 95.5355 27.129 95.4125 27.006C95.2895 26.883 95.228 26.7315 95.228 26.5515C95.228 26.3715 95.2895 26.2215 95.4125 26.1015C95.5355 25.9815 95.693 25.9215 95.885 25.9215ZM96.587 28.248V32.262H97.8785V33H94.157V32.262H95.579V28.986H94.202V28.248H96.587ZM99.3869 33V28.248H100.255L100.332 28.8645C100.53 28.6245 100.764 28.4415 101.034 28.3155C101.304 28.1865 101.581 28.122 101.866 28.122C102.31 28.122 102.642 28.2465 102.861 28.4955C103.083 28.7445 103.194 29.091 103.194 29.535V33H102.186V30.0345C102.186 29.6235 102.144 29.331 102.06 29.157C101.979 28.98 101.794 28.8915 101.506 28.8915C101.275 28.8915 101.064 28.9635 100.872 29.1075C100.683 29.2485 100.524 29.409 100.395 29.589V33H99.3869ZM105.62 30.948C105.65 31.437 105.787 31.791 106.03 32.01C106.276 32.229 106.571 32.3385 106.916 32.3385C107.147 32.3385 107.362 32.3025 107.56 32.2305C107.761 32.1585 107.962 32.0565 108.163 31.9245L108.599 32.5275C108.377 32.7075 108.118 32.8515 107.821 32.9595C107.524 33.0675 107.206 33.1215 106.867 33.1215C106.372 33.1215 105.953 33.0165 105.611 32.8065C105.272 32.5965 105.014 32.304 104.837 31.929C104.663 31.554 104.576 31.1205 104.576 30.6285C104.576 30.1515 104.663 29.7255 104.837 29.3505C105.011 28.9725 105.26 28.674 105.584 28.455C105.908 28.233 106.295 28.122 106.745 28.122C107.375 28.122 107.873 28.3335 108.239 28.7565C108.608 29.1795 108.793 29.76 108.793 30.498C108.793 30.579 108.79 30.66 108.784 30.741C108.781 30.819 108.776 30.888 108.77 30.948H105.62ZM106.754 28.869C106.439 28.869 106.178 28.9815 105.971 29.2065C105.764 29.4315 105.646 29.7825 105.616 30.2595H107.816C107.807 29.8125 107.711 29.469 107.528 29.229C107.348 28.989 107.09 28.869 106.754 28.869Z" fill="black"/>
</svg>
